<svg width="387" height="239" viewBox="0 0 387 239" fill="none" xmlns="http://www.w3.org/2000/svg">
<path d="M114.549 84.4784C107.961 99.7878 97.3856 110.66 82.823 117.094C68.0423 122.981 52.6145 122.466 36.5397 115.549C20.4648 108.631 9.67529 97.8646 4.17104 83.2486C-1.55126 68.0852 -1.11845 52.8488 5.46947 37.5394C12.2221 21.8473 22.9888 11.0578 37.7694 5.1708C52.1674 -0.880889 67.4038 -0.448063 83.4786 6.46925C99.5535 13.3866 110.534 24.2356 116.421 39.0163C121.926 53.6322 121.301 68.7863 114.549 84.4784ZM365.855 238.888L326.816 222.089L336.451 199.699C344.027 182.093 339.012 169.502 321.407 161.926L303.035 154.021L298.835 163.781C292.248 179.09 282.137 189.935 268.505 196.316C255.037 202.315 241.223 202.267 227.061 196.173C211.752 189.585 201.454 179.257 196.168 165.188C191.047 150.737 191.78 135.857 198.368 120.547C205.12 104.855 215.613 94.1746 229.846 88.5057C243.697 82.672 258.851 83.2962 275.309 90.3782L341.33 118.789C384.197 137.235 396.407 167.891 377.96 210.757L365.855 238.888Z" fill="#51535E"/>
</svg>
