<svg width="60" height="60" viewBox="0 0 60 60" fill="none" xmlns="http://www.w3.org/2000/svg">
<path d="M45.3906 5.39209C46.081 5.39209 46.6406 5.95173 46.6406 6.64209L46.6406 14.1421C46.6406 14.8324 46.081 15.3921 45.3906 15.3921L14.1406 15.3921C13.4503 15.3921 12.8906 14.8324 12.8906 14.1421L12.8906 6.64209C12.8906 5.95173 13.4503 5.39209 14.1406 5.39209L45.3906 5.39209Z" fill="#C52229"/>
<path fill-rule="evenodd" clip-rule="evenodd" d="M47.8906 6.64209L47.8906 14.1421C47.8906 15.5228 46.7713 16.6421 45.3906 16.6421L14.1406 16.6421C12.7599 16.6421 11.6406 15.5228 11.6406 14.1421L11.6406 6.64209C11.6406 5.26138 12.7599 4.14209 14.1406 4.14209L45.3906 4.14209C46.7713 4.14209 47.8906 5.26138 47.8906 6.64209ZM46.6406 6.64209C46.6406 5.95173 46.081 5.39209 45.3906 5.39209L14.1406 5.39209C13.4503 5.39209 12.8906 5.95173 12.8906 6.64209L12.8906 14.1421C12.8906 14.8324 13.4503 15.3921 14.1406 15.3921L45.3906 15.3921C46.081 15.3921 46.6406 14.8324 46.6406 14.1421L46.6406 6.64209Z" fill="#9B0F15"/>
<path fill-rule="evenodd" clip-rule="evenodd" d="M14.0273 6.01709C14.0273 5.67191 14.3072 5.39209 14.6523 5.39209H45.2353C45.5805 5.39209 45.8603 5.67191 45.8603 6.01709C45.8603 6.36227 45.5805 6.64209 45.2353 6.64209H14.6523C14.3072 6.64209 14.0273 6.36227 14.0273 6.01709Z" fill="#DF3840"/>
<path fill-rule="evenodd" clip-rule="evenodd" d="M13.7891 9.6499C13.7891 9.30472 14.0689 9.0249 14.4141 9.0249H44.997C45.3422 9.0249 45.622 9.30472 45.622 9.6499C45.622 9.99508 45.3422 10.2749 44.997 10.2749H14.4141C14.0689 10.2749 13.7891 9.99508 13.7891 9.6499Z" fill="#AF1B22"/>
<path fill-rule="evenodd" clip-rule="evenodd" d="M13.7891 7.34521C13.7891 7.00004 14.0689 6.72021 14.4141 6.72021H44.997C45.3422 6.72021 45.622 7.00004 45.622 7.34521C45.622 7.69039 45.3422 7.97021 44.997 7.97021H14.4141C14.0689 7.97021 13.7891 7.69039 13.7891 7.34521Z" fill="#AF1B22"/>
<path fill-rule="evenodd" clip-rule="evenodd" d="M13.7891 11.9155C13.7891 11.5703 14.0689 11.2905 14.4141 11.2905H44.997C45.3422 11.2905 45.622 11.5703 45.622 11.9155C45.622 12.2607 45.3422 12.5405 44.997 12.5405H14.4141C14.0689 12.5405 13.7891 12.2607 13.7891 11.9155Z" fill="#AF1B22"/>
<path fill-rule="evenodd" clip-rule="evenodd" d="M14.0273 13.9858C14.0273 13.6407 14.3072 13.3608 14.6523 13.3608H45.2353C45.5805 13.3608 45.8603 13.6407 45.8603 13.9858C45.8603 14.331 45.5805 14.6108 45.2353 14.6108H14.6523C14.3072 14.6108 14.0273 14.331 14.0273 13.9858Z" fill="#AF1B22"/>
<path d="M14.8292 5.88388C14.341 5.39573 13.5496 5.39573 13.0614 5.88388L7.75813 11.1872C7.26997 11.6753 7.26997 12.4668 7.75813 12.955L29.0786 34.2754C29.5667 34.7635 30.3582 34.7635 30.8463 34.2754L36.1496 28.9721C36.6378 28.4839 36.6378 27.6925 36.1496 27.2043L14.8292 5.88388Z" fill="#F1333B"/>
<path fill-rule="evenodd" clip-rule="evenodd" d="M12.1775 4.9997L6.87424 10.303C5.89793 11.2793 5.89793 12.8622 6.87424 13.8385L28.1947 35.159C29.171 36.1353 30.7539 36.1353 31.7302 35.159L37.0335 29.8557C38.0098 28.8794 38.0098 27.2965 37.0335 26.3201L15.7131 4.9997C14.7368 4.02339 13.1539 4.02339 12.1775 4.9997ZM13.0614 5.88358C13.5496 5.39543 14.341 5.39543 14.8292 5.88358L36.1496 27.204C36.6378 27.6922 36.6378 28.4836 36.1496 28.9718L30.8463 34.2751C30.3582 34.7632 29.5667 34.7632 29.0786 34.2751L7.75813 12.9547C7.26997 12.4665 7.26997 11.675 7.75813 11.1869L13.0614 5.88358Z" fill="#9B0F15"/>
<path d="M44.7056 5.9083C45.1917 5.40869 45.9925 5.40319 46.4854 5.89609L51.7886 11.1992C52.272 11.6827 52.2774 12.4648 51.8006 12.9548L31.0809 34.251C30.5948 34.7506 29.794 34.7561 29.3011 34.2632L23.998 28.96C23.5146 28.4766 23.5092 27.6945 23.9859 27.2045L44.7056 5.9083Z" fill="#F1333B"/>
<path fill-rule="evenodd" clip-rule="evenodd" d="M47.3693 5.01191L52.6725 10.315C53.6393 11.2819 53.6501 12.8461 52.6966 13.8262L31.9769 35.1223C31.0047 36.1216 29.403 36.1326 28.4172 35.1468L23.1141 29.8436C22.1473 28.8768 22.1365 27.3125 23.09 26.3325L43.8097 5.03633C44.7819 4.0371 46.3835 4.02611 47.3693 5.01191ZM46.4854 5.89579C45.9926 5.4029 45.1917 5.40839 44.7056 5.908L23.9859 27.2042C23.5092 27.6942 23.5146 28.4763 23.998 28.9597L29.3011 34.2629C29.794 34.7558 30.5948 34.7503 31.0809 34.2507L51.8006 12.9545C52.2774 12.4645 52.272 11.6824 51.7886 11.1989L46.4854 5.89579Z" fill="#9B0F15"/>
<path fill-rule="evenodd" clip-rule="evenodd" d="M45.7173 6.43251C45.9625 6.67547 45.9643 7.07119 45.7213 7.31638L32.9479 20.207C32.7049 20.4522 32.3092 20.454 32.064 20.211C31.8188 19.9681 31.817 19.5724 32.06 19.3272L44.8334 6.43655C45.0763 6.19136 45.4721 6.18955 45.7173 6.43251Z" fill="#FE666D"/>
<path fill-rule="evenodd" clip-rule="evenodd" d="M7.92134 11.6689C8.16542 11.4248 8.56115 11.4248 8.80522 11.6689L16.9302 19.7939C17.1743 20.038 17.1743 20.4337 16.9302 20.6778C16.6861 20.9219 16.2904 20.9219 16.0463 20.6778L7.92134 12.5528C7.67726 12.3087 7.67726 11.913 7.92134 11.6689Z" fill="#FE666D"/>
<path d="M48.2591 10.016C48.0089 10.2662 47.6081 10.2712 47.3639 10.027C47.1198 9.78289 47.1247 9.38209 47.375 9.13184C47.6253 8.88158 48.026 8.87663 48.2702 9.12079C48.5144 9.36494 48.5094 9.76573 48.2591 10.016Z" fill="#DB1B24"/>
<path d="M46.3604 11.5633C46.0491 11.8746 45.5505 11.8808 45.2468 11.5771C44.9431 11.2734 44.9493 10.7748 45.2606 10.4635C45.5719 10.1523 46.0704 10.1461 46.3741 10.4498C46.6778 10.7535 46.6717 11.2521 46.3604 11.5633Z" fill="#DB1B24"/>
<path d="M48.3853 12.0529C48.2296 12.2086 47.9803 12.2116 47.8285 12.0598C47.6766 11.9079 47.6797 11.6587 47.8354 11.503C47.991 11.3474 48.2403 11.3443 48.3921 11.4961C48.544 11.648 48.5409 11.8973 48.3853 12.0529Z" fill="#DB1B24"/>
<path d="M43.8853 17.3327C43.7296 17.4883 43.4803 17.4914 43.3285 17.3396C43.1766 17.1877 43.1797 16.9384 43.3354 16.7828C43.491 16.6272 43.7403 16.6241 43.8921 16.7759C44.044 16.9278 44.0409 17.1771 43.8853 17.3327Z" fill="#DB1B24"/>
<path d="M46.1431 13.7448C45.9874 13.9005 45.7382 13.9035 45.5863 13.7517C45.4345 13.5998 45.4375 13.3506 45.5932 13.1949C45.7488 13.0393 45.9981 13.0362 46.1499 13.188C46.3018 13.3399 46.2987 13.5892 46.1431 13.7448Z" fill="#DB1B24"/>
<path d="M43.8775 19.485C43.7218 19.6407 43.4725 19.6438 43.3207 19.4919C43.1688 19.3401 43.1719 19.0908 43.3276 18.9351C43.4832 18.7795 43.7325 18.7764 43.8843 18.9283C44.0362 19.0801 44.0331 19.3294 43.8775 19.485Z" fill="#DB1B24"/>
<path d="M44.4439 13.2697C44.2882 13.4254 44.0389 13.4284 43.8871 13.2766C43.7352 13.1247 43.7383 12.8755 43.894 12.7198C44.0496 12.5642 44.2989 12.5611 44.4507 12.7129C44.6026 12.8648 44.5995 13.1141 44.4439 13.2697Z" fill="#DB1B24"/>
<path d="M45.7134 17.7228C45.5577 17.8785 45.3085 17.8816 45.1566 17.7297C45.0048 17.5779 45.0078 17.3286 45.1635 17.1729C45.3191 17.0173 45.5684 17.0142 45.7203 17.1661C45.8721 17.3179 45.869 17.5672 45.7134 17.7228Z" fill="#DB1B24"/>
<path d="M50.272 11.0661C50.1163 11.2217 49.8671 11.2248 49.7152 11.073C49.5634 10.9211 49.5664 10.6718 49.7221 10.5162C49.8777 10.3606 50.127 10.3575 50.2789 10.5093C50.4307 10.6612 50.4276 10.9104 50.272 11.0661Z" fill="#DB1B24"/>
<path d="M48.2097 14.3316C47.9564 14.5849 47.5507 14.5899 47.3036 14.3428C47.0565 14.0957 47.0615 13.69 47.3148 13.4367C47.5681 13.1834 47.9738 13.1784 48.2209 13.4255C48.468 13.6726 48.463 14.0783 48.2097 14.3316Z" fill="#DB1B24"/>
<path d="M50.6238 12.8121C50.3705 13.0654 49.9648 13.0704 49.7177 12.8233C49.4705 12.5761 49.4755 12.1705 49.7288 11.9171C49.9822 11.6638 50.3878 11.6588 50.635 11.906C50.8821 12.1531 50.8771 12.5588 50.6238 12.8121Z" fill="#DB1B24"/>
<path d="M45.7332 15.9439C45.4798 16.1972 45.0742 16.2022 44.827 15.9551C44.5799 15.708 44.5849 15.3023 44.8382 15.049C45.0915 14.7957 45.4972 14.7907 45.7443 15.0378C45.9915 15.2849 45.9865 15.6906 45.7332 15.9439Z" fill="#DB1B24"/>
<path d="M47.4907 16.2194C47.3351 16.3751 47.0858 16.3781 46.934 16.2263C46.7821 16.0744 46.7852 15.8252 46.9408 15.6695C47.0965 15.5139 47.3458 15.5108 47.4976 15.6626C47.6495 15.8145 47.6464 16.0638 47.4907 16.2194Z" fill="#DB1B24"/>
<path d="M46.875 38.125C46.875 47.4448 39.3198 55 30 55C20.6802 55 13.125 47.4448 13.125 38.125C13.125 28.8052 20.6802 21.25 30 21.25C39.3198 21.25 46.875 28.8052 46.875 38.125Z" fill="#FFBB0D"/>
<path fill-rule="evenodd" clip-rule="evenodd" d="M48.125 38.125C48.125 48.1352 40.0102 56.25 30 56.25C19.9898 56.25 11.875 48.1352 11.875 38.125C11.875 28.1148 19.9898 20 30 20C40.0102 20 48.125 28.1148 48.125 38.125ZM30 55C39.3198 55 46.875 47.4448 46.875 38.125C46.875 28.8052 39.3198 21.25 30 21.25C20.6802 21.25 13.125 28.8052 13.125 38.125C13.125 47.4448 20.6802 55 30 55Z" fill="#E89B05"/>
<path fill-rule="evenodd" clip-rule="evenodd" d="M14.375 38.75C14.0298 38.75 13.75 38.4702 13.75 38.125C13.75 29.1504 21.0254 21.875 30 21.875C30.3452 21.875 30.625 22.1548 30.625 22.5C30.625 22.8452 30.3452 23.125 30 23.125C21.7157 23.125 15 29.8407 15 38.125C15 38.4702 14.7202 38.75 14.375 38.75Z" fill="#E8AA0A"/>
<path fill-rule="evenodd" clip-rule="evenodd" d="M45.625 37.5C45.9702 37.5 46.25 37.7798 46.25 38.125C46.25 47.0996 38.9746 54.375 30 54.375C29.6548 54.375 29.375 54.0952 29.375 53.75C29.375 53.4048 29.6548 53.125 30 53.125C38.2843 53.125 45 46.4093 45 38.125C45 37.7798 45.2798 37.5 45.625 37.5Z" fill="#E8AA0A"/>
<path d="M42.5 38.125C42.5 45.0286 36.9036 50.625 30 50.625C23.0964 50.625 17.5 45.0286 17.5 38.125C17.5 31.2214 23.0964 25.625 30 25.625C36.9036 25.625 42.5 31.2214 42.5 38.125Z" fill="#FFDD28"/>
<path fill-rule="evenodd" clip-rule="evenodd" d="M43.75 38.125C43.75 45.7189 37.5939 51.875 30 51.875C22.4061 51.875 16.25 45.7189 16.25 38.125C16.25 30.5311 22.4061 24.375 30 24.375C37.5939 24.375 43.75 30.5311 43.75 38.125ZM30 50.625C36.9036 50.625 42.5 45.0286 42.5 38.125C42.5 31.2214 36.9036 25.625 30 25.625C23.0964 25.625 17.5 31.2214 17.5 38.125C17.5 45.0286 23.0964 50.625 30 50.625Z" fill="#E89B05"/>
<path fill-rule="evenodd" clip-rule="evenodd" d="M30 48.75C35.868 48.75 40.625 43.993 40.625 38.125C40.625 37.7798 40.9048 37.5 41.25 37.5C41.5952 37.5 41.875 37.7798 41.875 38.125C41.875 44.6834 36.5584 50 30 50C29.6548 50 29.375 49.7202 29.375 49.375C29.375 49.0298 29.6548 48.75 30 48.75Z" fill="#ECC704"/>
<path fill-rule="evenodd" clip-rule="evenodd" d="M30 27.5C24.132 27.5 19.375 32.257 19.375 38.125C19.375 38.4702 19.0952 38.75 18.75 38.75C18.4048 38.75 18.125 38.4702 18.125 38.125C18.125 31.5666 23.4416 26.25 30 26.25C30.3452 26.25 30.625 26.5298 30.625 26.875C30.625 27.2202 30.3452 27.5 30 27.5Z" fill="#FFEF9C"/>
<path d="M31.4912 43.125H29.3745V34.9658L26.8477 35.7495V34.0283L31.2642 32.4463H31.4912V43.125Z" fill="#FFEF9C"/>
<path fill-rule="evenodd" clip-rule="evenodd" d="M32.7412 43.125C32.7412 43.8154 32.1816 44.375 31.4912 44.375H29.3745C28.6842 44.375 28.1245 43.8154 28.1245 43.125V36.6622L27.2179 36.9434C26.8386 37.0611 26.4259 36.9914 26.1062 36.7558C25.7864 36.5202 25.5977 36.1467 25.5977 35.7495V34.0283C25.5977 33.5005 25.9292 33.0295 26.4261 32.8515L30.8426 31.2695C30.9779 31.2211 31.1205 31.1963 31.2642 31.1963H31.4912C32.1816 31.1963 32.7412 31.7559 32.7412 32.4463V43.125ZM29.3745 34.9658V43.125H31.4912V32.4463H31.2642L26.8477 34.0283V35.7495L29.3745 34.9658Z" fill="#E89B05"/>
</svg>
