<svg width="60" height="60" viewBox="0 0 60 60" fill="none" xmlns="http://www.w3.org/2000/svg">
<path d="M45.3906 5.39209C46.081 5.39209 46.6406 5.95173 46.6406 6.64209L46.6406 14.1421C46.6406 14.8324 46.081 15.3921 45.3906 15.3921L14.1406 15.3921C13.4503 15.3921 12.8906 14.8324 12.8906 14.1421L12.8906 6.64209C12.8906 5.95173 13.4503 5.39209 14.1406 5.39209L45.3906 5.39209Z" fill="#C52229"/>
<path fill-rule="evenodd" clip-rule="evenodd" d="M47.8906 6.64209L47.8906 14.1421C47.8906 15.5228 46.7713 16.6421 45.3906 16.6421L14.1406 16.6421C12.7599 16.6421 11.6406 15.5228 11.6406 14.1421L11.6406 6.64209C11.6406 5.26138 12.7599 4.14209 14.1406 4.14209L45.3906 4.14209C46.7713 4.14209 47.8906 5.26138 47.8906 6.64209ZM46.6406 6.64209C46.6406 5.95173 46.081 5.39209 45.3906 5.39209L14.1406 5.39209C13.4503 5.39209 12.8906 5.95173 12.8906 6.64209L12.8906 14.1421C12.8906 14.8324 13.4503 15.3921 14.1406 15.3921L45.3906 15.3921C46.081 15.3921 46.6406 14.8324 46.6406 14.1421L46.6406 6.64209Z" fill="#9B0F15"/>
<path fill-rule="evenodd" clip-rule="evenodd" d="M14.0273 6.01709C14.0273 5.67191 14.3072 5.39209 14.6523 5.39209H45.2353C45.5805 5.39209 45.8603 5.67191 45.8603 6.01709C45.8603 6.36227 45.5805 6.64209 45.2353 6.64209H14.6523C14.3072 6.64209 14.0273 6.36227 14.0273 6.01709Z" fill="#DF3840"/>
<path fill-rule="evenodd" clip-rule="evenodd" d="M13.7891 9.6499C13.7891 9.30472 14.0689 9.0249 14.4141 9.0249H44.997C45.3422 9.0249 45.622 9.30472 45.622 9.6499C45.622 9.99508 45.3422 10.2749 44.997 10.2749H14.4141C14.0689 10.2749 13.7891 9.99508 13.7891 9.6499Z" fill="#AF1B22"/>
<path fill-rule="evenodd" clip-rule="evenodd" d="M13.7891 7.34521C13.7891 7.00004 14.0689 6.72021 14.4141 6.72021H44.997C45.3422 6.72021 45.622 7.00004 45.622 7.34521C45.622 7.69039 45.3422 7.97021 44.997 7.97021H14.4141C14.0689 7.97021 13.7891 7.69039 13.7891 7.34521Z" fill="#AF1B22"/>
<path fill-rule="evenodd" clip-rule="evenodd" d="M13.7891 11.9155C13.7891 11.5703 14.0689 11.2905 14.4141 11.2905H44.997C45.3422 11.2905 45.622 11.5703 45.622 11.9155C45.622 12.2607 45.3422 12.5405 44.997 12.5405H14.4141C14.0689 12.5405 13.7891 12.2607 13.7891 11.9155Z" fill="#AF1B22"/>
<path fill-rule="evenodd" clip-rule="evenodd" d="M14.0273 13.9858C14.0273 13.6407 14.3072 13.3608 14.6523 13.3608H45.2353C45.5805 13.3608 45.8603 13.6407 45.8603 13.9858C45.8603 14.331 45.5805 14.6108 45.2353 14.6108H14.6523C14.3072 14.6108 14.0273 14.331 14.0273 13.9858Z" fill="#AF1B22"/>
<path d="M14.8292 5.88388C14.341 5.39573 13.5496 5.39573 13.0614 5.88388L7.75813 11.1872C7.26997 11.6753 7.26997 12.4668 7.75813 12.955L29.0786 34.2754C29.5667 34.7635 30.3582 34.7635 30.8463 34.2754L36.1496 28.9721C36.6378 28.4839 36.6378 27.6925 36.1496 27.2043L14.8292 5.88388Z" fill="#F1333B"/>
<path fill-rule="evenodd" clip-rule="evenodd" d="M12.1775 5.00019L6.87424 10.3035C5.89793 11.2798 5.89793 12.8627 6.87424 13.839L28.1947 35.1595C29.171 36.1358 30.7539 36.1358 31.7302 35.1595L37.0335 29.8562C38.0098 28.8799 38.0098 27.2969 37.0335 26.3206L15.7131 5.00019C14.7368 4.02388 13.1539 4.02388 12.1775 5.00019ZM13.0614 5.88407C13.5496 5.39592 14.341 5.39592 14.8292 5.88407L36.1496 27.2045C36.6378 27.6927 36.6378 28.4841 36.1496 28.9723L30.8463 34.2756C30.3582 34.7637 29.5667 34.7637 29.0786 34.2756L7.75813 12.9551C7.26997 12.467 7.26997 11.6755 7.75813 11.1874L13.0614 5.88407Z" fill="#9B0F15"/>
<path d="M44.7056 5.9083C45.1917 5.40869 45.9925 5.40319 46.4854 5.89609L51.7886 11.1992C52.272 11.6827 52.2774 12.4648 51.8006 12.9548L31.0809 34.251C30.5948 34.7506 29.794 34.7561 29.3011 34.2632L23.998 28.96C23.5146 28.4766 23.5092 27.6945 23.9859 27.2045L44.7056 5.9083Z" fill="#F1333B"/>
<path fill-rule="evenodd" clip-rule="evenodd" d="M47.3693 5.0124L52.6725 10.3155C53.6393 11.2824 53.6501 12.8466 52.6966 13.8266L31.9769 35.1228C31.0047 36.1221 29.403 36.133 28.4172 35.1472L23.1141 29.8441C22.1473 28.8773 22.1365 27.313 23.09 26.333L43.8097 5.03682C44.7819 4.03759 46.3835 4.0266 47.3693 5.0124ZM46.4854 5.89628C45.9926 5.40338 45.1917 5.40888 44.7056 5.90849L23.9859 27.2047C23.5092 27.6947 23.5146 28.4768 23.998 28.9602L29.3011 34.2634C29.794 34.7563 30.5948 34.7508 31.0809 34.2512L51.8006 12.955C52.2774 12.465 52.272 11.6828 51.7886 11.1994L46.4854 5.89628Z" fill="#9B0F15"/>
<path fill-rule="evenodd" clip-rule="evenodd" d="M45.7134 6.43251C45.9585 6.67547 45.9604 7.07119 45.7174 7.31638L32.944 20.207C32.701 20.4522 32.3053 20.454 32.0601 20.211C31.8149 19.9681 31.8131 19.5724 32.056 19.3272L44.8295 6.43655C45.0724 6.19136 45.4682 6.18955 45.7134 6.43251Z" fill="#FE666D"/>
<path fill-rule="evenodd" clip-rule="evenodd" d="M7.91743 11.6689C8.16151 11.4248 8.55724 11.4248 8.80132 11.6689L16.9263 19.7939C17.1704 20.038 17.1704 20.4337 16.9263 20.6778C16.6822 20.9219 16.2865 20.9219 16.0424 20.6778L7.91743 12.5528C7.67336 12.3087 7.67336 11.913 7.91743 11.6689Z" fill="#FE666D"/>
<path d="M48.2552 10.0165C48.005 10.2667 47.6042 10.2717 47.36 10.0275C47.1159 9.78338 47.1208 9.38258 47.3711 9.13233C47.6213 8.88207 48.0221 8.87712 48.2663 9.12127C48.5104 9.36543 48.5055 9.76622 48.2552 10.0165Z" fill="#DB1B24"/>
<path d="M46.3565 11.5638C46.0452 11.8751 45.5466 11.8813 45.2429 11.5776C44.9392 11.2739 44.9454 10.7753 45.2567 10.464C45.568 10.1527 46.0665 10.1466 46.3702 10.4503C46.6739 10.754 46.6678 11.2525 46.3565 11.5638Z" fill="#DB1B24"/>
<path d="M48.3814 12.0529C48.2257 12.2086 47.9764 12.2116 47.8246 12.0598C47.6727 11.9079 47.6758 11.6587 47.8315 11.503C47.9871 11.3474 48.2364 11.3443 48.3882 11.4961C48.5401 11.648 48.537 11.8973 48.3814 12.0529Z" fill="#DB1B24"/>
<path d="M43.8775 17.3327C43.7218 17.4883 43.4725 17.4914 43.3207 17.3396C43.1688 17.1877 43.1719 16.9384 43.3276 16.7828C43.4832 16.6272 43.7325 16.6241 43.8843 16.7759C44.0362 16.9278 44.0331 17.1771 43.8775 17.3327Z" fill="#DB1B24"/>
<path d="M46.1392 13.7453C45.9835 13.9009 45.7342 13.904 45.5824 13.7522C45.4305 13.6003 45.4336 13.351 45.5893 13.1954C45.7449 13.0398 45.9942 13.0367 46.146 13.1885C46.2979 13.3404 46.2948 13.5896 46.1392 13.7453Z" fill="#DB1B24"/>
<path d="M43.8735 19.485C43.7179 19.6407 43.4686 19.6438 43.3168 19.4919C43.1649 19.3401 43.168 19.0908 43.3236 18.9351C43.4793 18.7795 43.7286 18.7764 43.8804 18.9283C44.0323 19.0801 44.0292 19.3294 43.8735 19.485Z" fill="#DB1B24"/>
<path d="M44.4439 13.2702C44.2882 13.4258 44.0389 13.4289 43.8871 13.2771C43.7352 13.1252 43.7383 12.8759 43.894 12.7203C44.0496 12.5647 44.2989 12.5616 44.4507 12.7134C44.6026 12.8653 44.5995 13.1146 44.4439 13.2702Z" fill="#DB1B24"/>
<path d="M45.7095 17.7228C45.5538 17.8785 45.3046 17.8816 45.1527 17.7297C45.0009 17.5779 45.0039 17.3286 45.1596 17.1729C45.3152 17.0173 45.5645 17.0142 45.7164 17.1661C45.8682 17.3179 45.8651 17.5672 45.7095 17.7228Z" fill="#DB1B24"/>
<path d="M50.2681 11.0661C50.1124 11.2217 49.8632 11.2248 49.7113 11.073C49.5595 10.9211 49.5625 10.6718 49.7182 10.5162C49.8738 10.3606 50.1231 10.3575 50.2749 10.5093C50.4268 10.6612 50.4237 10.9104 50.2681 11.0661Z" fill="#DB1B24"/>
<path d="M48.2058 14.3321C47.9525 14.5854 47.5468 14.5904 47.2997 14.3433C47.0526 14.0962 47.0576 13.6905 47.3109 13.4372C47.5642 13.1839 47.9699 13.1789 48.217 13.426C48.4641 13.6731 48.4591 14.0788 48.2058 14.3321Z" fill="#DB1B24"/>
<path d="M50.6199 12.8121C50.3666 13.0654 49.9609 13.0704 49.7138 12.8233C49.4666 12.5761 49.4716 12.1705 49.7249 11.9171C49.9782 11.6638 50.3839 11.6588 50.6311 11.906C50.8782 12.1531 50.8732 12.5588 50.6199 12.8121Z" fill="#DB1B24"/>
<path d="M45.7292 15.9444C45.4759 16.1977 45.0703 16.2027 44.8231 15.9556C44.576 15.7085 44.581 15.3028 44.8343 15.0495C45.0876 14.7962 45.4933 14.7912 45.7404 15.0383C45.9876 15.2854 45.9826 15.6911 45.7292 15.9444Z" fill="#DB1B24"/>
<path d="M47.4868 16.2194C47.3312 16.3751 47.0819 16.3781 46.9301 16.2263C46.7782 16.0744 46.7813 15.8252 46.9369 15.6695C47.0926 15.5139 47.3418 15.5108 47.4937 15.6626C47.6455 15.8145 47.6425 16.0638 47.4868 16.2194Z" fill="#DB1B24"/>
<path d="M46.875 38.125C46.875 47.4448 39.3198 55 30 55C20.6802 55 13.125 47.4448 13.125 38.125C13.125 28.8052 20.6802 21.25 30 21.25C39.3198 21.25 46.875 28.8052 46.875 38.125Z" fill="#BCCCD2"/>
<path fill-rule="evenodd" clip-rule="evenodd" d="M48.125 38.125C48.125 48.1352 40.0102 56.25 30 56.25C19.9898 56.25 11.875 48.1352 11.875 38.125C11.875 28.1148 19.9898 20 30 20C40.0102 20 48.125 28.1148 48.125 38.125ZM30 55C39.3198 55 46.875 47.4448 46.875 38.125C46.875 28.8052 39.3198 21.25 30 21.25C20.6802 21.25 13.125 28.8052 13.125 38.125C13.125 47.4448 20.6802 55 30 55Z" fill="#81A5B0"/>
<path fill-rule="evenodd" clip-rule="evenodd" d="M14.375 38.75C14.0298 38.75 13.75 38.4702 13.75 38.125C13.75 29.1504 21.0254 21.875 30 21.875C30.3452 21.875 30.625 22.1548 30.625 22.5C30.625 22.8452 30.3452 23.125 30 23.125C21.7157 23.125 15 29.8407 15 38.125C15 38.4702 14.7202 38.75 14.375 38.75Z" fill="#D0DEE3"/>
<path fill-rule="evenodd" clip-rule="evenodd" d="M45.625 37.5C45.9702 37.5 46.25 37.7798 46.25 38.125C46.25 47.0996 38.9746 54.375 30 54.375C29.6548 54.375 29.375 54.0952 29.375 53.75C29.375 53.4048 29.6548 53.125 30 53.125C38.2843 53.125 45 46.4093 45 38.125C45 37.7798 45.2798 37.5 45.625 37.5Z" fill="#A2B9C1"/>
<path d="M42.5 38.125C42.5 45.0286 36.9036 50.625 30 50.625C23.0964 50.625 17.5 45.0286 17.5 38.125C17.5 31.2214 23.0964 25.625 30 25.625C36.9036 25.625 42.5 31.2214 42.5 38.125Z" fill="#C7D4D8"/>
<path fill-rule="evenodd" clip-rule="evenodd" d="M43.75 38.125C43.75 45.7189 37.5939 51.875 30 51.875C22.4061 51.875 16.25 45.7189 16.25 38.125C16.25 30.5311 22.4061 24.375 30 24.375C37.5939 24.375 43.75 30.5311 43.75 38.125ZM30 50.625C36.9036 50.625 42.5 45.0286 42.5 38.125C42.5 31.2214 36.9036 25.625 30 25.625C23.0964 25.625 17.5 31.2214 17.5 38.125C17.5 45.0286 23.0964 50.625 30 50.625Z" fill="#81A5B0"/>
<path fill-rule="evenodd" clip-rule="evenodd" d="M30 48.75C35.868 48.75 40.625 43.993 40.625 38.125C40.625 37.7798 40.9048 37.5 41.25 37.5C41.5952 37.5 41.875 37.7798 41.875 38.125C41.875 44.6834 36.5584 50 30 50C29.6548 50 29.375 49.7202 29.375 49.375C29.375 49.0298 29.6548 48.75 30 48.75Z" fill="#B5C3C8"/>
<path fill-rule="evenodd" clip-rule="evenodd" d="M30 27.5C24.132 27.5 19.375 32.257 19.375 38.125C19.375 38.4702 19.0952 38.75 18.75 38.75C18.4048 38.75 18.125 38.4702 18.125 38.125C18.125 31.5666 23.4416 26.25 30 26.25C30.3452 26.25 30.625 26.5298 30.625 26.875C30.625 27.2202 30.3452 27.5 30 27.5Z" fill="#D9EAEF"/>
<path d="M33.6587 43.125H26.3491V41.6748L29.7988 37.998C30.2725 37.4805 30.6216 37.0288 30.8462 36.6431C31.0757 36.2573 31.1904 35.8911 31.1904 35.5444C31.1904 35.0708 31.0708 34.6997 30.8315 34.4312C30.5923 34.1577 30.2505 34.021 29.8062 34.021C29.3276 34.021 28.9492 34.187 28.6709 34.519C28.3975 34.8462 28.2607 35.2783 28.2607 35.8154H26.1367C26.1367 35.166 26.2905 34.5728 26.5981 34.0356C26.9106 33.4985 27.3501 33.0786 27.9165 32.7759C28.4829 32.4683 29.125 32.3145 29.8428 32.3145C30.9414 32.3145 31.7935 32.5781 32.3989 33.1055C33.0093 33.6328 33.3145 34.3774 33.3145 35.3394C33.3145 35.8667 33.1777 36.4038 32.9043 36.9507C32.6309 37.4976 32.1621 38.1348 31.498 38.8623L29.0737 41.4185H33.6587V43.125Z" fill="#D9EAEF"/>
<path fill-rule="evenodd" clip-rule="evenodd" d="M34.9087 43.125C34.9087 43.8154 34.349 44.375 33.6587 44.375H26.3491C25.6588 44.375 25.0991 43.8154 25.0991 43.125V41.6748C25.0991 41.3571 25.2201 41.0512 25.4375 40.8195L28.8818 37.1486C29.3223 36.6667 29.6047 36.291 29.766 36.0141L29.7719 36.004C29.9196 35.7558 29.9404 35.6091 29.9404 35.5444C29.9404 35.4109 29.9234 35.3328 29.911 35.2944C29.9089 35.2879 29.9069 35.2825 29.9051 35.278C29.8852 35.2746 29.8531 35.271 29.8062 35.271C29.7127 35.271 29.6735 35.2868 29.6656 35.2902C29.6607 35.2924 29.6574 35.2944 29.6537 35.2971C29.65 35.3 29.6417 35.3069 29.6294 35.3214C29.5884 35.3707 29.5107 35.4948 29.5107 35.8154C29.5107 36.5058 28.9511 37.0654 28.2607 37.0654H26.1367C25.4464 37.0654 24.8867 36.5058 24.8867 35.8154C24.8867 34.9592 25.0921 34.1501 25.5134 33.4144L25.5177 33.407C25.9502 32.6637 26.5616 32.0835 27.3236 31.6754C28.0922 31.2588 28.9422 31.0645 29.8428 31.0645C31.1308 31.0645 32.3133 31.3742 33.218 32.1612C34.1551 32.9719 34.5645 34.0919 34.5645 35.3394C34.5645 36.0895 34.3687 36.8169 34.0223 37.5097C33.6758 38.2029 33.1219 38.9375 32.4213 39.705C32.4159 39.7109 32.4105 39.7167 32.405 39.7225L31.982 40.1685H33.6587C34.349 40.1685 34.9087 40.7281 34.9087 41.4185V43.125ZM29.0737 41.4185L31.498 38.8623C32.1621 38.1348 32.6309 37.4976 32.9043 36.9507C33.1777 36.4038 33.3145 35.8667 33.3145 35.3394C33.3145 34.3774 33.0093 33.6328 32.3989 33.1055C31.7935 32.5781 30.9414 32.3145 29.8428 32.3145C29.125 32.3145 28.4829 32.4683 27.9165 32.7759C27.3501 33.0786 26.9106 33.4985 26.5981 34.0356C26.5003 34.2066 26.4179 34.3831 26.3512 34.5654C26.2082 34.956 26.1367 35.3727 26.1367 35.8154H28.2607C28.2607 35.2783 28.3975 34.8462 28.6709 34.519C28.9492 34.187 29.3276 34.021 29.8062 34.021C30.2505 34.021 30.5923 34.1577 30.8315 34.4312C31.0708 34.6997 31.1904 35.0708 31.1904 35.5444C31.1904 35.8911 31.0757 36.2573 30.8462 36.6431C30.6216 37.0288 30.2725 37.4805 29.7988 37.998L26.3491 41.6748V43.125H33.6587V41.4185H29.0737Z" fill="#81A5B0"/>
</svg>
