<svg width="60" height="61" viewBox="0 0 60 61" fill="none" xmlns="http://www.w3.org/2000/svg">
<path d="M45.3906 5.66943C46.081 5.66943 46.6406 6.22908 46.6406 6.91943L46.6406 14.4194C46.6406 15.1098 46.081 15.6694 45.3906 15.6694L14.1406 15.6694C13.4503 15.6694 12.8906 15.1098 12.8906 14.4194L12.8906 6.91943C12.8906 6.22908 13.4503 5.66943 14.1406 5.66943L45.3906 5.66943Z" fill="#C52229"/>
<path fill-rule="evenodd" clip-rule="evenodd" d="M47.8906 6.91943L47.8906 14.4194C47.8906 15.8001 46.7713 16.9194 45.3906 16.9194L14.1406 16.9194C12.7599 16.9194 11.6406 15.8001 11.6406 14.4194L11.6406 6.91943C11.6406 5.53872 12.7599 4.41943 14.1406 4.41943L45.3906 4.41943C46.7713 4.41943 47.8906 5.53872 47.8906 6.91943ZM46.6406 6.91943C46.6406 6.22908 46.081 5.66943 45.3906 5.66943L14.1406 5.66943C13.4503 5.66943 12.8906 6.22908 12.8906 6.91943L12.8906 14.4194C12.8906 15.1098 13.4503 15.6694 14.1406 15.6694L45.3906 15.6694C46.081 15.6694 46.6406 15.1098 46.6406 14.4194L46.6406 6.91943Z" fill="#9B0F15"/>
<path fill-rule="evenodd" clip-rule="evenodd" d="M14.0273 6.29443C14.0273 5.94926 14.3072 5.66943 14.6523 5.66943H45.2353C45.5805 5.66943 45.8603 5.94926 45.8603 6.29443C45.8603 6.63961 45.5805 6.91943 45.2353 6.91943H14.6523C14.3072 6.91943 14.0273 6.63961 14.0273 6.29443Z" fill="#DF3840"/>
<path fill-rule="evenodd" clip-rule="evenodd" d="M13.7891 9.92725C13.7891 9.58207 14.0689 9.30225 14.4141 9.30225H44.997C45.3422 9.30225 45.622 9.58207 45.622 9.92725C45.622 10.2724 45.3422 10.5522 44.997 10.5522H14.4141C14.0689 10.5522 13.7891 10.2724 13.7891 9.92725Z" fill="#AF1B22"/>
<path fill-rule="evenodd" clip-rule="evenodd" d="M13.7891 7.62256C13.7891 7.27738 14.0689 6.99756 14.4141 6.99756H44.997C45.3422 6.99756 45.622 7.27738 45.622 7.62256C45.622 7.96774 45.3422 8.24756 44.997 8.24756H14.4141C14.0689 8.24756 13.7891 7.96774 13.7891 7.62256Z" fill="#AF1B22"/>
<path fill-rule="evenodd" clip-rule="evenodd" d="M13.7891 12.1929C13.7891 11.8477 14.0689 11.5679 14.4141 11.5679H44.997C45.3422 11.5679 45.622 11.8477 45.622 12.1929C45.622 12.538 45.3422 12.8179 44.997 12.8179H14.4141C14.0689 12.8179 13.7891 12.538 13.7891 12.1929Z" fill="#AF1B22"/>
<path fill-rule="evenodd" clip-rule="evenodd" d="M14.0273 14.2632C14.0273 13.918 14.3072 13.6382 14.6523 13.6382H45.2353C45.5805 13.6382 45.8603 13.918 45.8603 14.2632C45.8603 14.6084 45.5805 14.8882 45.2353 14.8882H14.6523C14.3072 14.8882 14.0273 14.6084 14.0273 14.2632Z" fill="#AF1B22"/>
<path d="M14.8292 6.16123C14.341 5.67307 13.5496 5.67307 13.0614 6.16123L7.75813 11.4645C7.26997 11.9527 7.26997 12.7441 7.75813 13.2323L29.0786 34.5527C29.5667 35.0409 30.3582 35.0409 30.8463 34.5527L36.1496 29.2494C36.6378 28.7613 36.6378 27.9698 36.1496 27.4817L14.8292 6.16123Z" fill="#F1333B"/>
<path fill-rule="evenodd" clip-rule="evenodd" d="M12.1775 5.27704L6.87424 10.5803C5.89793 11.5567 5.89793 13.1396 6.87424 14.1159L28.1947 35.4363C29.171 36.4126 30.7539 36.4126 31.7302 35.4363L37.0335 30.133C38.0098 29.1567 38.0098 27.5738 37.0335 26.5975L15.7131 5.27704C14.7368 4.30073 13.1539 4.30073 12.1775 5.27704ZM13.0614 6.16093C13.5496 5.67277 14.341 5.67277 14.8292 6.16093L36.1496 27.4814C36.6378 27.9695 36.6378 28.761 36.1496 29.2491L30.8463 34.5524C30.3582 35.0406 29.5667 35.0406 29.0786 34.5524L7.75813 13.232C7.26997 12.7438 7.26997 11.9524 7.75813 11.4642L13.0614 6.16093Z" fill="#9B0F15"/>
<path d="M44.7056 6.18565C45.1917 5.68603 45.9925 5.68054 46.4854 6.17344L51.7886 11.4766C52.272 11.96 52.2774 12.7421 51.8006 13.2321L31.0809 34.5283C30.5948 35.0279 29.794 35.0334 29.3011 34.5405L23.998 29.2374C23.5146 28.754 23.5092 27.9718 23.9859 27.4818L44.7056 6.18565Z" fill="#F1333B"/>
<path fill-rule="evenodd" clip-rule="evenodd" d="M47.3693 5.28925L52.6725 10.5924C53.6393 11.5592 53.6501 13.1235 52.6966 14.1035L31.9769 35.3997C31.0047 36.3989 29.403 36.4099 28.4172 35.4241L23.1141 30.121C22.1473 29.1541 22.1365 27.5899 23.09 26.6099L43.8097 5.31367C44.7819 4.31445 46.3835 4.30346 47.3693 5.28925ZM46.4854 6.17314C45.9926 5.68024 45.1917 5.68573 44.7056 6.18535L23.9859 27.4815C23.5092 27.9715 23.5146 28.7537 23.998 29.2371L29.3011 34.5402C29.794 35.0331 30.5948 35.0276 31.0809 34.528L51.8006 13.2318C52.2774 12.7418 52.272 11.9597 51.7886 11.4763L46.4854 6.17314Z" fill="#9B0F15"/>
<path fill-rule="evenodd" clip-rule="evenodd" d="M45.7134 6.70985C45.9585 6.95281 45.9604 7.34854 45.7174 7.59373L32.944 20.4844C32.701 20.7295 32.3053 20.7313 32.0601 20.4884C31.8149 20.2454 31.8131 19.8497 32.056 19.6045L44.8295 6.71389C45.0724 6.4687 45.4682 6.46689 45.7134 6.70985Z" fill="#FE666D"/>
<path fill-rule="evenodd" clip-rule="evenodd" d="M7.91743 11.9462C8.16151 11.7022 8.55724 11.7022 8.80132 11.9462L16.9263 20.0712C17.1704 20.3153 17.1704 20.711 16.9263 20.9551C16.6822 21.1992 16.2865 21.1992 16.0424 20.9551L7.91743 12.8301C7.67336 12.586 7.67336 12.1903 7.91743 11.9462Z" fill="#FE666D"/>
<path d="M48.2552 10.2938C48.005 10.5441 47.6042 10.549 47.36 10.3049C47.1159 10.0607 47.1208 9.65992 47.3711 9.40967C47.6213 9.15941 48.0221 9.15447 48.2663 9.39862C48.5104 9.64277 48.5055 10.0436 48.2552 10.2938Z" fill="#DB1B24"/>
<path d="M46.3565 11.8407C46.0452 12.152 45.5466 12.1581 45.2429 11.8544C44.9392 11.5507 44.9454 11.0522 45.2567 10.7409C45.568 10.4296 46.0665 10.4234 46.3702 10.7271C46.6739 11.0308 46.6678 11.5294 46.3565 11.8407Z" fill="#DB1B24"/>
<path d="M48.3814 12.3303C48.2257 12.4859 47.9764 12.489 47.8246 12.3371C47.6727 12.1853 47.6758 11.936 47.8315 11.7804C47.9871 11.6247 48.2364 11.6216 48.3882 11.7735C48.5401 11.9253 48.537 12.1746 48.3814 12.3303Z" fill="#DB1B24"/>
<path d="M43.8775 17.6105C43.7218 17.7662 43.4725 17.7693 43.3207 17.6174C43.1688 17.4656 43.1719 17.2163 43.3276 17.0606C43.4832 16.905 43.7325 16.9019 43.8843 17.0538C44.0362 17.2056 44.0331 17.4549 43.8775 17.6105Z" fill="#DB1B24"/>
<path d="M46.1392 14.0226C45.9835 14.1783 45.7342 14.1814 45.5824 14.0295C45.4305 13.8777 45.4336 13.6284 45.5893 13.4727C45.7449 13.3171 45.9942 13.314 46.146 13.4659C46.2979 13.6177 46.2948 13.867 46.1392 14.0226Z" fill="#DB1B24"/>
<path d="M43.8735 19.7624C43.7179 19.918 43.4686 19.9211 43.3168 19.7693C43.1649 19.6174 43.168 19.3681 43.3236 19.2125C43.4793 19.0568 43.7286 19.0538 43.8804 19.2056C44.0323 19.3575 44.0292 19.6067 43.8735 19.7624Z" fill="#DB1B24"/>
<path d="M44.4439 13.5475C44.2882 13.7032 44.0389 13.7063 43.8871 13.5544C43.7352 13.4026 43.7383 13.1533 43.894 12.9976C44.0496 12.842 44.2989 12.8389 44.4507 12.9908C44.6026 13.1426 44.5995 13.3919 44.4439 13.5475Z" fill="#DB1B24"/>
<path d="M45.7095 18.0007C45.5538 18.1563 45.3046 18.1594 45.1527 18.0075C45.0009 17.8557 45.0039 17.6064 45.1596 17.4508C45.3152 17.2951 45.5645 17.292 45.7164 17.4439C45.8682 17.5957 45.8651 17.845 45.7095 18.0007Z" fill="#DB1B24"/>
<path d="M50.2681 11.3439C50.1124 11.4996 49.8632 11.5027 49.7113 11.3508C49.5595 11.199 49.5625 10.9497 49.7182 10.794C49.8738 10.6384 50.1231 10.6353 50.2749 10.7872C50.4268 10.939 50.4237 11.1883 50.2681 11.3439Z" fill="#DB1B24"/>
<path d="M48.2058 14.6094C47.9525 14.8628 47.5468 14.8678 47.2997 14.6206C47.0526 14.3735 47.0576 13.9678 47.3109 13.7145C47.5642 13.4612 47.9699 13.4562 48.217 13.7033C48.4641 13.9505 48.4591 14.3561 48.2058 14.6094Z" fill="#DB1B24"/>
<path d="M50.6199 13.0894C50.3666 13.3427 49.9609 13.3477 49.7138 13.1006C49.4666 12.8535 49.4716 12.4478 49.7249 12.1945C49.9782 11.9412 50.3839 11.9362 50.6311 12.1833C50.8782 12.4304 50.8732 12.8361 50.6199 13.0894Z" fill="#DB1B24"/>
<path d="M45.7292 16.2217C45.4759 16.4751 45.0703 16.4801 44.8231 16.2329C44.576 15.9858 44.581 15.5801 44.8343 15.3268C45.0876 15.0735 45.4933 15.0685 45.7404 15.3156C45.9876 15.5628 45.9826 15.9684 45.7292 16.2217Z" fill="#DB1B24"/>
<path d="M47.4868 16.4968C47.3312 16.6524 47.0819 16.6555 46.9301 16.5036C46.7782 16.3518 46.7813 16.1025 46.9369 15.9469C47.0926 15.7912 47.3418 15.7881 47.4937 15.94C47.6455 16.0918 47.6425 16.3411 47.4868 16.4968Z" fill="#DB1B24"/>
<path d="M46.875 38.4023C46.875 47.7221 39.3198 55.2773 30 55.2773C20.6802 55.2773 13.125 47.7221 13.125 38.4023C13.125 29.0825 20.6802 21.5273 30 21.5273C39.3198 21.5273 46.875 29.0825 46.875 38.4023Z" fill="#DCA16A"/>
<path fill-rule="evenodd" clip-rule="evenodd" d="M48.125 38.4023C48.125 48.4125 40.0102 56.5273 30 56.5273C19.9898 56.5273 11.875 48.4125 11.875 38.4023C11.875 28.3922 19.9898 20.2773 30 20.2773C40.0102 20.2773 48.125 28.3922 48.125 38.4023ZM30 55.2773C39.3198 55.2773 46.875 47.7221 46.875 38.4023C46.875 29.0825 39.3198 21.5273 30 21.5273C20.6802 21.5273 13.125 29.0825 13.125 38.4023C13.125 47.7221 20.6802 55.2773 30 55.2773Z" fill="#C38144"/>
<path fill-rule="evenodd" clip-rule="evenodd" d="M14.375 39.0273C14.0298 39.0273 13.75 38.7475 13.75 38.4023C13.75 29.4277 21.0254 22.1523 30 22.1523C30.3452 22.1523 30.625 22.4322 30.625 22.7773C30.625 23.1225 30.3452 23.4023 30 23.4023C21.7157 23.4023 15 30.1181 15 38.4023C15 38.7475 14.7202 39.0273 14.375 39.0273Z" fill="#F0B57F"/>
<path fill-rule="evenodd" clip-rule="evenodd" d="M45.625 37.7773C45.9702 37.7773 46.25 38.0572 46.25 38.4023C46.25 47.377 38.9746 54.6523 30 54.6523C29.6548 54.6523 29.375 54.3725 29.375 54.0273C29.375 53.6822 29.6548 53.4023 30 53.4023C38.2843 53.4023 45 46.6866 45 38.4023C45 38.0572 45.2798 37.7773 45.625 37.7773Z" fill="#CF945D"/>
<path d="M42.5 38.4023C42.5 45.3059 36.9036 50.9023 30 50.9023C23.0964 50.9023 17.5 45.3059 17.5 38.4023C17.5 31.4988 23.0964 25.9023 30 25.9023C36.9036 25.9023 42.5 31.4988 42.5 38.4023Z" fill="#F7BA82"/>
<path fill-rule="evenodd" clip-rule="evenodd" d="M43.75 38.4023C43.75 45.9963 37.5939 52.1523 30 52.1523C22.4061 52.1523 16.25 45.9963 16.25 38.4023C16.25 30.8084 22.4061 24.6523 30 24.6523C37.5939 24.6523 43.75 30.8084 43.75 38.4023ZM30 50.9023C36.9036 50.9023 42.5 45.3059 42.5 38.4023C42.5 31.4988 36.9036 25.9023 30 25.9023C23.0964 25.9023 17.5 31.4988 17.5 38.4023C17.5 45.3059 23.0964 50.9023 30 50.9023Z" fill="#C38144"/>
<path fill-rule="evenodd" clip-rule="evenodd" d="M30 49.0273C35.868 49.0273 40.625 44.2704 40.625 38.4023C40.625 38.0572 40.9048 37.7773 41.25 37.7773C41.5952 37.7773 41.875 38.0572 41.875 38.4023C41.875 44.9607 36.5584 50.2773 30 50.2773C29.6548 50.2773 29.375 49.9975 29.375 49.6523C29.375 49.3072 29.6548 49.0273 30 49.0273Z" fill="#E6A66C"/>
<path fill-rule="evenodd" clip-rule="evenodd" d="M30 27.7773C24.132 27.7773 19.375 32.5343 19.375 38.4023C19.375 38.7475 19.0952 39.0273 18.75 39.0273C18.4048 39.0273 18.125 38.7475 18.125 38.4023C18.125 31.844 23.4416 26.5273 30 26.5273C30.3452 26.5273 30.625 26.8072 30.625 27.1523C30.625 27.4975 30.3452 27.7773 30 27.7773Z" fill="#FFD5AE"/>
<path d="M28.5181 37.4048H29.646C30.0073 37.4048 30.3052 37.3438 30.5396 37.2217C30.7739 37.0947 30.9473 36.9189 31.0596 36.6943C31.1768 36.4648 31.2354 36.1987 31.2354 35.896C31.2354 35.6226 31.1816 35.3809 31.0742 35.1709C30.9717 34.9561 30.813 34.79 30.5981 34.6729C30.3833 34.5508 30.1123 34.4897 29.7852 34.4897C29.5264 34.4897 29.2871 34.541 29.0674 34.6436C28.8477 34.7461 28.6719 34.8901 28.54 35.0757C28.4082 35.2612 28.3423 35.4858 28.3423 35.7495H26.2256C26.2256 35.1636 26.3818 34.6533 26.6943 34.2188C27.0117 33.7842 27.4365 33.4448 27.9688 33.2007C28.501 32.9565 29.0869 32.8345 29.7266 32.8345C30.4492 32.8345 31.0815 32.9517 31.6235 33.186C32.1655 33.4155 32.5879 33.7549 32.8906 34.2041C33.1934 34.6533 33.3447 35.21 33.3447 35.874C33.3447 36.2109 33.2666 36.5381 33.1104 36.8555C32.9541 37.168 32.7295 37.4512 32.4365 37.7051C32.1484 37.9541 31.7969 38.1543 31.3818 38.3057C30.9668 38.4521 30.5005 38.5254 29.9829 38.5254H28.5181V37.4048ZM28.5181 39.0088V37.9175H29.9829C30.564 37.9175 31.0742 37.9834 31.5137 38.1152C31.9531 38.2471 32.3218 38.4375 32.6196 38.6865C32.9175 38.9307 33.1421 39.2212 33.2935 39.5581C33.4448 39.8901 33.5205 40.2588 33.5205 40.6641C33.5205 41.1621 33.4253 41.6064 33.2349 41.9971C33.0444 42.3828 32.7759 42.71 32.4292 42.9785C32.0874 43.2471 31.687 43.4521 31.228 43.5938C30.769 43.7305 30.2686 43.7988 29.7266 43.7988C29.2773 43.7988 28.8354 43.7378 28.4009 43.6157C27.9712 43.4888 27.5806 43.3008 27.229 43.0518C26.8823 42.7979 26.604 42.4805 26.394 42.0996C26.189 41.7139 26.0864 41.2573 26.0864 40.73H28.2031C28.2031 41.0034 28.2715 41.2476 28.4082 41.4624C28.5449 41.6772 28.7329 41.8457 28.9722 41.9678C29.2163 42.0898 29.4873 42.1509 29.7852 42.1509C30.1221 42.1509 30.4102 42.0898 30.6494 41.9678C30.8936 41.8408 31.0791 41.665 31.2061 41.4404C31.3379 41.2109 31.4038 40.9448 31.4038 40.6421C31.4038 40.2515 31.333 39.939 31.1914 39.7046C31.0498 39.4653 30.8472 39.2896 30.5835 39.1772C30.3198 39.0649 30.0073 39.0088 29.646 39.0088H28.5181Z" fill="#FFD5AE"/>
<path d="M28.5181 37.4048V36.1548C27.8277 36.1548 27.2681 36.7144 27.2681 37.4048H28.5181ZM30.5396 37.2217L31.117 38.3303C31.123 38.3272 31.129 38.324 31.1349 38.3208L30.5396 37.2217ZM31.0596 36.6943L29.9463 36.1258L29.9415 36.1353L31.0596 36.6943ZM31.0742 35.1709L29.9461 35.7093C29.9511 35.7197 29.9562 35.73 29.9614 35.7402L31.0742 35.1709ZM30.5981 34.6729L29.9806 35.7597C29.9869 35.7632 29.9932 35.7668 29.9996 35.7702L30.5981 34.6729ZM28.3423 35.7495V36.9995C29.0326 36.9995 29.5923 36.4399 29.5923 35.7495H28.3423ZM26.2256 35.7495H24.9756C24.9756 36.4399 25.5352 36.9995 26.2256 36.9995V35.7495ZM26.6943 34.2188L25.6849 33.4815L25.6795 33.489L26.6943 34.2188ZM31.6235 33.186L31.1274 34.3334L31.1361 34.3371L31.6235 33.186ZM32.8906 34.2041L33.9272 33.5055L32.8906 34.2041ZM33.1104 36.8555L34.2284 37.4145L34.2318 37.4076L33.1104 36.8555ZM32.4365 37.7051L33.254 38.6507L33.2552 38.6497L32.4365 37.7051ZM31.3818 38.3057L31.7979 39.4845L31.8101 39.48L31.3818 38.3057ZM28.5181 38.5254H27.2681C27.2681 39.2157 27.8277 39.7754 28.5181 39.7754V38.5254ZM28.5181 39.0088H27.2681C27.2681 39.6991 27.8277 40.2588 28.5181 40.2588V39.0088ZM28.5181 37.9175V36.6675C27.8277 36.6675 27.2681 37.2271 27.2681 37.9175H28.5181ZM32.6196 38.6865L31.8178 39.6456L31.8272 39.6533L32.6196 38.6865ZM33.2935 39.5581L32.1532 40.0704L32.1561 40.0766L33.2935 39.5581ZM33.2349 41.9971L34.3557 42.5504L34.3585 42.5448L33.2349 41.9971ZM32.4292 42.9785L31.6637 41.9903L31.6569 41.9956L32.4292 42.9785ZM31.228 43.5938L31.5849 44.7918L31.5965 44.7882L31.228 43.5938ZM28.4009 43.6157L28.0467 44.8145C28.0521 44.8161 28.0574 44.8176 28.0628 44.8191L28.4009 43.6157ZM27.229 43.0518L26.4904 44.0602C26.4957 44.0641 26.5011 44.068 26.5065 44.0718L27.229 43.0518ZM26.394 42.0996L25.2903 42.6864C25.2933 42.692 25.2963 42.6975 25.2994 42.7031L26.394 42.0996ZM26.0864 40.73V39.48C25.3961 39.48 24.8364 40.0396 24.8364 40.73H26.0864ZM28.2031 40.73H29.4531C29.4531 40.0396 28.8935 39.48 28.2031 39.48V40.73ZM28.4082 41.4624L27.3536 42.1335L28.4082 41.4624ZM28.9722 41.9678L28.4041 43.0813L28.4132 43.0858L28.9722 41.9678ZM30.6494 41.9678L31.2175 43.0813L31.2261 43.0768L30.6494 41.9678ZM31.2061 41.4404L30.1221 40.8178L30.1179 40.8254L31.2061 41.4404ZM31.1914 39.7046L30.1156 40.3413L30.1215 40.351L31.1914 39.7046ZM28.5181 38.6548H29.646V36.1548H28.5181V38.6548ZM29.646 38.6548C30.1382 38.6548 30.651 38.573 31.117 38.3303L29.9621 36.113C29.9593 36.1145 29.8765 36.1548 29.646 36.1548V38.6548ZM31.1349 38.3208C31.5801 38.0796 31.9434 37.7218 32.1776 37.2534L29.9415 36.1353C29.9419 36.1345 29.9435 36.1317 29.9463 36.1277C29.9492 36.1236 29.9523 36.1199 29.9553 36.1169C29.9582 36.114 29.9597 36.113 29.9587 36.1137C29.9576 36.1145 29.9532 36.1177 29.9442 36.1226L31.1349 38.3208ZM32.1728 37.2628C32.3944 36.829 32.4854 36.3619 32.4854 35.896H29.9854C29.9854 36.0356 29.9592 36.1007 29.9463 36.1259L32.1728 37.2628ZM32.4854 35.896C32.4854 35.4562 32.398 35.0139 32.187 34.6016L29.9614 35.7402C29.9653 35.7478 29.9854 35.7889 29.9854 35.896H32.4854ZM32.2023 34.6325C31.9831 34.1732 31.6356 33.8149 31.1967 33.5755L29.9996 35.7702C30.0013 35.7712 29.9901 35.765 29.9747 35.749C29.9591 35.7327 29.9498 35.7171 29.9461 35.7093L32.2023 34.6325ZM31.2157 33.586C30.7613 33.3278 30.2609 33.2397 29.7852 33.2397V35.7397C29.9637 35.7397 30.0054 35.7737 29.9806 35.7597L31.2157 33.586ZM29.7852 33.2397C29.3562 33.2397 28.935 33.3259 28.5388 33.5108L29.596 35.7763C29.6392 35.7561 29.6965 35.7397 29.7852 35.7397V33.2397ZM28.5388 33.5108C28.1362 33.6987 27.7864 33.9782 27.5211 34.3517L29.559 35.7997C29.5606 35.7974 29.5613 35.7968 29.563 35.7953C29.5651 35.7936 29.5743 35.7864 29.596 35.7763L28.5388 33.5108ZM27.5211 34.3517C27.2161 34.7809 27.0923 35.2688 27.0923 35.7495H29.5923C29.5923 35.722 29.5957 35.7199 29.5911 35.7353C29.5889 35.7428 29.5852 35.7531 29.5795 35.765C29.5737 35.777 29.5668 35.7888 29.559 35.7997L27.5211 34.3517ZM28.3423 34.4995H26.2256V36.9995H28.3423V34.4995ZM27.4756 35.7495C27.4756 35.3994 27.5641 35.1502 27.7092 34.9485L25.6795 33.489C25.1995 34.1564 24.9756 34.9278 24.9756 35.7495H27.4756ZM27.7038 34.956C27.8842 34.7089 28.1343 34.5 28.4899 34.3369L27.4476 32.0645C26.7388 32.3897 26.1392 32.8595 25.6849 33.4815L27.7038 34.956ZM28.4899 34.3369C28.844 34.1744 29.25 34.0845 29.7266 34.0845V31.5845C28.9238 31.5845 28.1579 31.7387 27.4476 32.0645L28.4899 34.3369ZM29.7266 34.0845C30.3158 34.0845 30.7729 34.1801 31.1274 34.3334L32.1197 32.0387C31.3902 31.7232 30.5826 31.5845 29.7266 31.5845V34.0845ZM31.1361 34.3371C31.4752 34.4807 31.6984 34.6717 31.854 34.9027L33.9272 33.5055C33.4774 32.8381 32.8558 32.3504 32.1109 32.035L31.1361 34.3371ZM31.854 34.9027C31.989 35.103 32.0947 35.4021 32.0947 35.874H34.5947C34.5947 35.0178 34.3977 34.2037 33.9272 33.5055L31.854 34.9027ZM32.0947 35.874C32.0947 36.0099 32.0649 36.1489 31.9889 36.3034L34.2318 37.4076C34.4683 36.9273 34.5947 36.412 34.5947 35.874H32.0947ZM31.9923 36.2965C31.9172 36.4467 31.8003 36.6024 31.6179 36.7605L33.2552 38.6497C33.6587 38.3 33.991 37.8893 34.2284 37.4145L31.9923 36.2965ZM31.6191 36.7594C31.4626 36.8947 31.2485 37.0237 30.9535 37.1313L31.8101 39.48C32.3452 39.2849 32.8343 39.0135 33.254 38.6507L31.6191 36.7594ZM30.9658 37.1269C30.7056 37.2188 30.3831 37.2754 29.9829 37.2754V39.7754C30.6178 39.7754 31.228 39.6855 31.7979 39.4844L30.9658 37.1269ZM29.9829 37.2754H28.5181V39.7754H29.9829V37.2754ZM29.7681 38.5254V37.4048H27.2681V38.5254H29.7681ZM29.7681 39.0088V37.9175H27.2681V39.0088H29.7681ZM28.5181 39.1675H29.9829V36.6675H28.5181V39.1675ZM29.9829 39.1675C30.4731 39.1675 30.8578 39.2235 31.1545 39.3125L31.8729 36.918C31.2907 36.7433 30.6549 36.6675 29.9829 36.6675V39.1675ZM31.1545 39.3125C31.4608 39.4044 31.6713 39.523 31.8179 39.6455L33.4214 37.7275C32.9723 37.352 32.4454 37.0897 31.8729 36.918L31.1545 39.3125ZM31.8272 39.6533C31.9821 39.7802 32.0845 39.9174 32.1532 40.0704L34.4337 39.0458C34.1997 38.525 33.8528 38.0811 33.412 37.7198L31.8272 39.6533ZM32.1561 40.0766C32.2254 40.2287 32.2705 40.4178 32.2705 40.6641H34.7705C34.7705 40.0998 34.6643 39.5516 34.4308 39.0396L32.1561 40.0766ZM32.2705 40.6641C32.2705 41.0001 32.2071 41.2526 32.1113 41.4493L34.3585 42.5448C34.6434 41.9603 34.7705 41.3241 34.7705 40.6641H32.2705ZM32.114 41.4437C32.0092 41.6561 31.8635 41.8356 31.6637 41.9903L33.1947 43.9667C33.6883 43.5844 34.0797 43.1096 34.3557 42.5504L32.114 41.4437ZM31.6569 41.9956C31.4476 42.1601 31.1874 42.2981 30.8595 42.3993L31.5965 44.7882C32.1866 44.6062 32.7272 44.3341 33.2015 43.9614L31.6569 41.9956ZM30.8712 42.3958C30.5421 42.4938 30.1634 42.5488 29.7266 42.5488V45.0488C30.3738 45.0488 30.996 44.9671 31.5849 44.7917L30.8712 42.3958ZM29.7266 42.5488C29.3922 42.5488 29.064 42.5036 28.7389 42.4123L28.0628 44.8191C28.6069 44.972 29.1625 45.0488 29.7266 45.0488V42.5488ZM28.7551 42.417C28.4518 42.3274 28.1865 42.1982 27.9515 42.0317L26.5065 44.0718C26.9746 44.4034 27.4906 44.6502 28.0467 44.8145L28.7551 42.417ZM27.9676 42.0433C27.7695 41.8982 27.612 41.7197 27.4887 41.4961L25.2994 42.7031C25.596 43.2413 25.9952 43.6975 26.4904 44.0602L27.9676 42.0433ZM27.4978 41.5128C27.4067 41.3416 27.3364 41.0948 27.3364 40.73H24.8364C24.8364 41.4199 24.9712 42.0862 25.2903 42.6864L27.4978 41.5128ZM26.0864 41.98H28.2031V39.48H26.0864V41.98ZM26.9531 40.73C26.9531 41.2229 27.0798 41.7032 27.3536 42.1335L29.4628 40.7913C29.4599 40.7869 29.4591 40.7846 29.4581 40.7811C29.4569 40.777 29.4531 40.7617 29.4531 40.73H26.9531ZM27.3536 42.1335C27.6168 42.547 27.9774 42.8635 28.4041 43.0812L29.5403 40.8543C29.4884 40.8279 29.4731 40.8075 29.4628 40.7913L27.3536 42.1335ZM28.4132 43.0858C28.8463 43.3024 29.3113 43.4009 29.7852 43.4009V40.9009C29.6633 40.9009 29.5863 40.8773 29.5312 40.8497L28.4132 43.0858ZM29.7852 43.4009C30.2705 43.4009 30.7633 43.313 31.2175 43.0812L30.0813 40.8543C30.057 40.8667 29.9737 40.9009 29.7852 40.9009V43.4009ZM31.2261 43.0768C31.67 42.846 32.0402 42.505 32.2943 42.0555L30.1179 40.8254C30.115 40.8304 30.1136 40.8318 30.112 40.8333C30.1099 40.8352 30.0994 40.8449 30.0727 40.8588L31.2261 43.0768ZM32.2899 42.0631C32.5455 41.6183 32.6538 41.1314 32.6538 40.6421H30.1538C30.1538 40.7582 30.1303 40.8036 30.1222 40.8178L32.2899 42.0631ZM32.6538 40.6421C32.6538 40.1157 32.5607 39.5537 32.2613 39.0582L30.1215 40.351C30.1054 40.3243 30.1538 40.3872 30.1538 40.6421H32.6538ZM32.2671 39.0679C31.9855 38.5921 31.5739 38.2404 31.0733 38.0272L30.0937 40.3273C30.1044 40.3318 30.1104 40.3353 30.1128 40.3368C30.1152 40.3383 30.1153 40.3386 30.1141 40.3375C30.1129 40.3365 30.112 40.3355 30.1116 40.335C30.1113 40.3347 30.1128 40.3364 30.1157 40.3412L32.2671 39.0679ZM31.0733 38.0272C30.6201 37.8342 30.1333 37.7588 29.646 37.7588V40.2588C29.8813 40.2588 30.0196 40.2957 30.0937 40.3273L31.0733 38.0272ZM29.646 37.7588H28.5181V40.2588H29.646V37.7588Z" fill="#C28044"/>
</svg>
