<svg width="28" height="24" viewBox="0 0 28 24" fill="none" xmlns="http://www.w3.org/2000/svg">
<path d="M1.80078 3.65239V20.348C1.80078 20.9015 2.02066 21.4324 2.41204 21.8237C2.80342 22.2151 3.33424 22.435 3.88774 22.435H24.7573C25.0341 22.435 25.2995 22.3251 25.4952 22.1294C25.6908 21.9337 25.8008 21.6683 25.8008 21.3915V6.78282C25.8008 6.50607 25.6908 6.24066 25.4952 6.04497C25.2995 5.84928 25.0341 5.73934 24.7573 5.73934H3.88774C3.33424 5.73934 2.80342 5.51947 2.41204 5.12809C2.02066 4.73671 1.80078 4.20588 1.80078 3.65239ZM1.80078 3.65239C1.80078 3.09889 2.02066 2.56807 2.41204 2.17669C2.80342 1.7853 3.33424 1.56543 3.88774 1.56543H21.6269" stroke="white" stroke-width="2.5" stroke-linecap="round" stroke-linejoin="round"/>
<path d="M17.6814 13.8144C18.4331 13.8144 19.0424 13.205 19.0424 12.4533C19.0424 11.7017 18.4331 11.0923 17.6814 11.0923C16.9297 11.0923 16.3203 11.7017 16.3203 12.4533C16.3203 13.205 16.9297 13.8144 17.6814 13.8144Z" fill="white"/>
</svg>
