<svg width="33" height="27" viewBox="0 0 33 27" fill="none" xmlns="http://www.w3.org/2000/svg">
<path fill-rule="evenodd" clip-rule="evenodd" d="M13.5127 0.199951C11.8558 0.199951 10.5127 1.5431 10.5127 3.19995V4.19995H3.5127C1.85584 4.19995 0.512695 5.5431 0.512695 7.19995V9.96795L15.7407 14.028C16.2465 14.1627 16.7788 14.1627 17.2847 14.028L32.5127 9.96795V7.19995C32.5127 5.5431 31.1695 4.19995 29.5127 4.19995H22.5127V3.19995C22.5127 1.5431 21.1695 0.199951 19.5127 0.199951H13.5127ZM13.5127 2.19995H19.5127C20.065 2.19995 20.5127 2.64767 20.5127 3.19995V4.19995H12.5127V3.19995C12.5127 2.64767 12.9604 2.19995 13.5127 2.19995ZM3.5127 26.2C1.85584 26.2 0.512695 24.8568 0.512695 23.2V11.9L16.2547 16.094C16.4237 16.1391 16.6017 16.1391 16.7707 16.094L32.5127 11.9V23.2C32.5127 24.8568 31.1695 26.2 29.5127 26.2H3.5127Z" fill="white"/>
</svg>
