<svg width="33" height="32" viewBox="0 0 33 32" fill="none" xmlns="http://www.w3.org/2000/svg">
<path fill-rule="evenodd" clip-rule="evenodd" d="M1.5127 0C0.960411 0 0.512695 0.447715 0.512695 1V25.99V26V26.088C0.533983 27.6491 1.16492 29.1399 2.2707 30.242C3.3944 31.3692 4.92109 32.0019 6.5127 32H31.5127C32.065 32 32.5127 31.5523 32.5127 31V21C32.5127 20.4477 32.065 20 31.5127 20H21.0347L29.2907 11.78C29.4788 11.5924 29.5845 11.3377 29.5845 11.072C29.5845 10.8063 29.4788 10.5516 29.2907 10.364L22.2207 3.292C21.8302 2.90162 21.1972 2.90162 20.8067 3.292L12.5127 11.554V1C12.5127 0.447715 12.065 0 11.5127 0H1.5127ZM27.1687 11.068L12.5127 25.668V14.376L21.5107 5.412L27.1687 11.068ZM9.5127 26C9.5127 24.3431 8.16955 23 6.5127 23C4.85584 23 3.5127 24.3431 3.5127 26C3.5127 27.6568 4.85584 29 6.5127 29C8.16955 29 9.5127 27.6568 9.5127 26ZM19.0287 22H30.5127V30H10.9987L19.0287 22Z" fill="white"/>
</svg>
