<svg width="36" height="32" viewBox="0 0 36 32" fill="none" xmlns="http://www.w3.org/2000/svg">
<path d="M1.90625 4.8V27.2C1.90625 27.9426 2.20125 28.6548 2.72635 29.1799C3.25145 29.705 3.96364 30 4.70625 30H32.7062C33.0775 30 33.4336 29.8525 33.6962 29.59C33.9587 29.3274 34.1062 28.9713 34.1062 28.6V9C34.1062 8.6287 33.9587 8.2726 33.6962 8.01005C33.4336 7.7475 33.0775 7.6 32.7062 7.6H4.70625C3.96364 7.6 3.25145 7.305 2.72635 6.7799C2.20125 6.2548 1.90625 5.54261 1.90625 4.8ZM1.90625 4.8C1.90625 4.05739 2.20125 3.3452 2.72635 2.8201C3.25145 2.295 3.96364 2 4.70625 2H28.5062" stroke="white" stroke-width="2.5" stroke-linecap="round" stroke-linejoin="round"/>
<path d="M26.4047 20.8992C27.5645 20.8992 28.5047 19.959 28.5047 18.7992C28.5047 17.6394 27.5645 16.6992 26.4047 16.6992C25.2449 16.6992 24.3047 17.6394 24.3047 18.7992C24.3047 19.959 25.2449 20.8992 26.4047 20.8992Z" fill="white"/>
</svg>
