<svg width="30" height="31" viewBox="0 0 30 31" fill="none" xmlns="http://www.w3.org/2000/svg">
<path fill-rule="evenodd" clip-rule="evenodd" d="M29.8479 1.16997C30.0923 1.55283 30.0376 2.0541 29.7164 2.37525L13.2888 18.803C12.9882 19.1034 12.5269 19.1727 12.1514 18.9739L0.5151 12.8136C0.177193 12.6347 -0.0237591 12.2736 0.00225319 11.8922C0.0282655 11.5107 0.276366 11.1804 0.635431 11.049L28.6993 0.781687C29.1259 0.625636 29.6035 0.787121 29.8479 1.16997ZM3.3428 12.12L12.4253 16.9284L25.2478 4.10598L3.3428 12.12Z" fill="white"/>
<path fill-rule="evenodd" clip-rule="evenodd" d="M29.5532 0.874706C29.9361 1.11906 30.0975 1.59674 29.9415 2.02327L19.6742 30.0871C19.5429 30.4463 19.2125 30.6944 18.831 30.7203C18.4496 30.7464 18.0885 30.5454 17.9096 30.2075L11.7492 18.5712C11.5504 18.1956 11.6198 17.7344 11.9203 17.4338L28.348 1.0062C28.6691 0.685039 29.1704 0.630352 29.5532 0.874706ZM26.6173 5.47487L13.7948 18.2973L18.6032 27.3798L26.6173 5.47487Z" fill="white"/>
</svg>
