<svg width="32" height="30" viewBox="0 0 32 30" fill="none" xmlns="http://www.w3.org/2000/svg">
<path d="M9.85323 12.5443H3.55453C3.39514 13.3412 3.3125 14.1618 3.3125 15C3.3125 16.523 3.58405 17.9811 4.08582 19.3329H9.80601C9.62301 17.1901 9.64072 14.9115 9.85323 12.5443ZM5.25465 21.6942C6.70093 23.9788 8.8674 25.7792 11.4294 26.771C10.8332 25.1948 10.3845 23.4947 10.0894 21.6942H5.25465ZM17.4624 2.44393C17.002 2.3908 16.5297 2.36719 16.0575 2.36719C15.479 2.36719 14.9064 2.40851 14.3515 2.47935C14.1567 3.05196 13.1354 6.1039 12.5215 10.183H19.8296C19.1094 6.51122 17.9642 3.61866 17.4624 2.44393ZM22.2263 10.183H27.8284C26.4471 6.87132 23.6844 4.26211 20.2546 3.06967C20.8745 4.72256 21.6714 7.19599 22.2145 10.1299C22.2204 10.1476 22.2263 10.1653 22.2263 10.183ZM4.27472 10.183H10.1307C10.5616 7.14877 11.211 4.65172 11.6537 3.14051C8.3184 4.36247 5.63245 6.93035 4.27472 10.183ZM28.5545 12.5443H22.5864C22.858 14.8229 22.8993 17.0307 22.7104 19.1204L22.6927 19.3329H28.0232C28.525 17.9811 28.7966 16.523 28.7966 15C28.7966 14.1618 28.7139 13.3412 28.5545 12.5443ZM14.316 27.5148C14.8827 27.5915 15.4672 27.6328 16.0575 27.6328C16.6301 27.6328 17.1968 27.5915 17.7517 27.5207C18.832 25.6376 19.5226 23.66 19.9359 21.6942H12.492C12.8402 23.6718 13.4188 25.6494 14.316 27.5148ZM12.2263 12.5443C12.0315 14.5868 11.9607 16.9185 12.1791 19.3329H20.3078C20.5675 16.9244 20.4672 14.5927 20.2074 12.5443H12.2263ZM20.7918 26.7296C23.3066 25.7261 25.4258 23.9492 26.8544 21.6942H22.3503C22.0138 23.4652 21.4943 25.1476 20.7918 26.7296Z" fill="#ED1C24"/>
<path d="M26.7323 4.39197C23.8811 1.55844 20.0854 0 16.0535 0C12.0216 0 8.23175 1.55844 5.38052 4.39197C2.52337 7.2255 0.953125 10.9917 0.953125 15C0.953125 19.0083 2.52337 22.7745 5.38052 25.608C8.23175 28.4357 12.0216 30 16.0535 30C20.0854 30 23.8752 28.4416 26.7264 25.608C29.5836 22.7745 31.1538 19.0083 31.1538 15C31.1538 10.9917 29.5836 7.2255 26.7323 4.39197ZM27.8362 10.183H22.2341C22.2282 10.1653 22.2282 10.1476 22.2223 10.1299C21.6792 7.19599 20.8823 4.72845 20.2624 3.06966C23.6922 4.2621 26.4549 6.87131 27.8362 10.183ZM14.3475 2.47934C14.9083 2.4026 15.475 2.36718 16.0535 2.36718C16.5316 2.36718 16.998 2.39669 17.4584 2.44392C17.9661 3.61865 19.1054 6.51122 19.8256 10.183H12.5175C13.1314 6.09799 14.1527 3.04604 14.3475 2.47934ZM3.3144 15C3.3144 14.1617 3.39704 13.3412 3.55643 12.5443H9.85513C9.63671 14.9115 9.619 17.1901 9.802 19.3329H4.08772C3.58595 17.9811 3.3144 16.523 3.3144 15ZM5.25655 21.6942H10.0972C10.3923 23.4947 10.8351 25.1948 11.4372 26.771C8.8693 25.7792 6.70283 23.9787 5.25655 21.6942ZM10.1326 10.183H4.27662C5.63435 6.93034 8.3203 4.36246 11.6556 3.1405C11.2129 4.65171 10.5635 7.14876 10.1326 10.183ZM17.7536 27.5207C17.1987 27.5915 16.632 27.6328 16.0594 27.6328C15.4691 27.6328 14.8906 27.5915 14.3179 27.5148C13.4207 25.6493 12.8421 23.6718 12.4998 21.6942H19.9437C19.5246 23.66 18.828 25.6375 17.7536 27.5207ZM20.3097 19.3329H12.181C11.9626 16.9185 12.0334 14.5868 12.2282 12.5443H20.2093C20.4691 14.5927 20.5694 16.9244 20.3097 19.3329ZM20.7937 26.7296C21.4903 25.1535 22.0157 23.4711 22.3522 21.6942H26.8563C25.4336 23.9492 23.3085 25.7261 20.7937 26.7296ZM22.6946 19.3329L22.7123 19.1204C22.9012 17.0307 22.8599 14.8229 22.5883 12.5443H28.5564C28.7158 13.3412 28.7985 14.1617 28.7985 15C28.7985 16.523 28.5269 17.9811 28.0251 19.3329H22.6946Z" fill="white"/>
</svg>
