<svg width="124" height="27" viewBox="0 0 124 27" fill="none" xmlns="http://www.w3.org/2000/svg">
<path d="M0 0H18.1263V9.06314C18.1263 14.066 14.066 18.1263 9.06314 18.1263C4.06029 18.1263 0 14.066 0 9.06314V0Z" fill="#ED1C24"/>
<path d="M5.4375 0H12.688V9.06314C12.688 11.0643 11.0639 12.6884 9.06276 12.6884C7.06162 12.6884 5.4375 11.0643 5.4375 9.06314V0Z" fill="#D11C24"/>
<path d="M9.06276 12.6885C11.0649 12.6885 12.688 11.0654 12.688 9.06325C12.688 7.06107 11.0649 5.43799 9.06276 5.43799C7.06058 5.43799 5.4375 7.06107 5.4375 9.06325C5.4375 11.0654 7.06058 12.6885 9.06276 12.6885Z" fill="#FF9B00"/>
<path d="M9.06276 26.1018C11.0649 26.1018 12.688 24.4788 12.688 22.4766C12.688 20.4744 11.0649 18.8513 9.06276 18.8513C7.06058 18.8513 5.4375 20.4744 5.4375 22.4766C5.4375 24.4788 7.06058 26.1018 9.06276 26.1018Z" fill="#FF9B00"/>
<path d="M19.5762 0.277344H37.7025V9.34049C37.7025 14.3433 33.6422 18.4036 28.6393 18.4036C23.6365 18.4036 19.5762 14.3433 19.5762 9.34049V0.277344Z" fill="#0000FF"/>
<path d="M25.0137 0H32.2642V9.06314C32.2642 11.0643 30.6401 12.6884 28.6389 12.6884C26.6378 12.6884 25.0137 11.0643 25.0137 9.06314V0Z" fill="#0000D6"/>
<path d="M28.6389 12.6885C30.6411 12.6885 32.2642 11.0654 32.2642 9.06325C32.2642 7.06107 30.6411 5.43799 28.6389 5.43799C26.6368 5.43799 25.0137 7.06107 25.0137 9.06325C25.0137 11.0654 26.6368 12.6885 28.6389 12.6885Z" fill="#FFC700"/>
<path d="M28.6389 26.1018C30.6411 26.1018 32.2642 24.4788 32.2642 22.4766C32.2642 20.4744 30.6411 18.8513 28.6389 18.8513C26.6368 18.8513 25.0137 20.4744 25.0137 22.4766C25.0137 24.4788 26.6368 26.1018 28.6389 26.1018Z" fill="#FFC700"/>
<path d="M39.1543 0H57.2806V9.06314C57.2806 14.066 53.2203 18.1263 48.2174 18.1263C43.2146 18.1263 39.1543 14.066 39.1543 9.06314V0Z" fill="#FF9B00"/>
<path d="M44.5918 0H51.8423V9.06314C51.8423 11.0643 50.2182 12.6884 48.2171 12.6884C46.2159 12.6884 44.5918 11.0643 44.5918 9.06314V0Z" fill="#FF7B12"/>
<path d="M48.2171 12.6885C50.2192 12.6885 51.8423 11.0654 51.8423 9.06325C51.8423 7.06107 50.2192 5.43799 48.2171 5.43799C46.2149 5.43799 44.5918 7.06107 44.5918 9.06325C44.5918 11.0654 46.2149 12.6885 48.2171 12.6885Z" fill="#FFC700"/>
<path d="M48.2171 26.1018C50.2192 26.1018 51.8423 24.4788 51.8423 22.4766C51.8423 20.4744 50.2192 18.8513 48.2171 18.8513C46.2149 18.8513 44.5918 20.4744 44.5918 22.4766C44.5918 24.4788 46.2149 26.1018 48.2171 26.1018Z" fill="#FFC700"/>
<path d="M78.3498 15.2349C78.3498 18.3399 76.0964 20.7382 73.3679 20.7382C71.9718 20.7382 70.9523 20.2574 70.2629 19.4637C70.2629 20.0025 69.8227 20.4427 69.2839 20.4427H67.1348V5.8562H70.2629V11.0061C70.9523 10.2125 71.9718 9.73165 73.3679 9.73165C76.1022 9.73165 78.3498 12.1299 78.3498 15.2349ZM75.2217 15.2349C75.2217 13.6708 74.1789 12.6918 72.7423 12.6918C71.3057 12.6918 70.2629 13.6708 70.2629 15.2349C70.2629 16.799 71.3057 17.778 72.7423 17.778C74.1789 17.778 75.2217 16.799 75.2217 15.2349Z" fill="white"/>
<path d="M86.3794 9.81243V13.3577C85.0876 13.1491 83.2512 13.6705 83.2512 15.7328V19.4634C83.2512 20.0021 82.8109 20.4424 82.2722 20.4424H80.123V10.0152H83.2512V11.8689C83.6683 10.4728 85.0644 9.80664 86.3794 9.80664V9.81243Z" fill="white"/>
<path d="M87.5254 7.22895C87.5254 6.2094 88.3827 5.35205 89.4023 5.35205C90.4218 5.35205 91.2792 6.2094 91.2792 7.22895C91.2792 8.2485 90.4218 9.10585 89.4023 9.10585C88.3827 9.10585 87.5254 8.2485 87.5254 7.22895Z" fill="white"/>
<path d="M87.8379 10.0212H90.9661V19.4695C90.9661 20.0082 90.5258 20.4485 89.9871 20.4485H87.8379V10.0212Z" fill="white"/>
<path d="M103.961 5.8562V20.4543H101.812C101.273 20.4543 100.833 20.014 100.833 19.4753C100.144 20.2689 99.1241 20.7497 97.728 20.7497C94.9937 20.7497 92.7461 18.3515 92.7461 15.2465C92.7461 12.1415 94.9995 9.74324 97.728 9.74324C99.1241 9.74324 100.149 10.224 100.833 11.0177V5.86779H103.961V5.8562ZM100.833 15.2407C100.833 13.6766 99.7903 12.6976 98.3536 12.6976C96.917 12.6976 95.8743 13.6766 95.8743 15.2407C95.8743 16.8048 96.917 17.7838 98.3536 17.7838C99.7903 17.7838 100.833 16.8048 100.833 15.2407Z" fill="white"/>
<path d="M116.953 10.0212V20.4484H114.804C114.265 20.4484 113.825 20.0081 113.825 19.4694C113.136 20.263 112.116 20.7438 110.72 20.7438C107.986 20.7438 105.738 18.3456 105.738 15.2406C105.738 12.1356 107.992 9.7373 110.72 9.7373C112.116 9.7373 113.142 10.2181 113.825 11.0117V10.0327H116.953V10.0212ZM113.825 15.2348C113.825 13.6707 112.782 12.6917 111.346 12.6917C109.909 12.6917 108.866 13.6707 108.866 15.2348C108.866 16.7989 109.909 17.7779 111.346 17.7779C112.782 17.7779 113.825 16.7989 113.825 15.2348Z" fill="white"/>
<path d="M119.039 18.7624C119.039 17.6792 119.937 16.7812 121.02 16.7812C122.104 16.7812 123.001 17.6792 123.001 18.7624C123.001 19.8457 122.104 20.7436 121.02 20.7436C119.937 20.7436 119.039 19.8457 119.039 18.7624Z" fill="white"/>
</svg>
