<svg width="35" height="35" viewBox="0 0 35 35" fill="none" xmlns="http://www.w3.org/2000/svg">
<path fill-rule="evenodd" clip-rule="evenodd" d="M2.92465 18.7926C3.94396 14.3719 3.87721 10.1148 3.99936 5.63084C4.0231 4.75514 3.37818 4.02711 2.55967 4.00073C1.74066 3.97435 1.05715 4.66544 1.03292 5.54113C0.917186 9.79301 1.01067 13.8391 0.0432947 18.0382C-0.152555 18.8876 0.334607 19.7474 1.12987 19.9532C1.92465 20.1642 2.72929 19.642 2.92465 18.7926Z" fill="#FBDD00"/>
<path fill-rule="evenodd" clip-rule="evenodd" d="M12.646 27.5692C20.0114 20.5611 26.9511 11.546 31.8016 2.44316C32.2246 1.64803 31.9491 0.64448 31.1863 0.20579C30.4235 -0.232902 29.4606 0.0522711 29.0376 0.847399C24.3472 9.64864 17.6356 18.3677 10.5137 25.14C9.86997 25.7541 9.82519 26.796 10.4136 27.465C11.002 28.134 12.0023 28.1833 12.646 27.5692Z" fill="#FBDD00"/>
<path fill-rule="evenodd" clip-rule="evenodd" d="M14.3185 34.6677C21.032 35.8087 27.9518 33.862 34.0562 31.1095C34.8526 30.7472 35.2159 29.79 34.8679 28.9735C34.5193 28.1515 33.5895 27.7784 32.7931 28.1353C27.2336 30.6444 20.9459 32.5047 14.8314 31.4664C13.9736 31.3204 13.1625 31.9206 13.0213 32.8021C12.8795 33.6835 13.4612 34.5217 14.3185 34.6677Z" fill="#FBDD00"/>
</svg>
