<svg width="122" height="56" viewBox="0 0 122 56" fill="none" xmlns="http://www.w3.org/2000/svg">
<path d="M0 0.202637H38.6076V19.5065C38.6076 30.1622 29.9595 38.8103 19.3038 38.8103C8.64811 38.8103 0 30.1622 0 19.5065V0.202637Z" fill="#ED1C24"/>
<path d="M11.582 0.202637H27.0251V19.5065C27.0251 23.7687 23.5658 27.228 19.3036 27.228C15.0413 27.228 11.582 23.7687 11.582 19.5065V0.202637Z" fill="#D11C24"/>
<path d="M19.3036 27.2287C23.568 27.2287 27.0251 23.7717 27.0251 19.5072C27.0251 15.2427 23.568 11.7856 19.3036 11.7856C15.0391 11.7856 11.582 15.2427 11.582 19.5072C11.582 23.7717 15.0391 27.2287 19.3036 27.2287Z" fill="#FF9B00"/>
<path d="M19.3036 55.7975C23.568 55.7975 27.0251 52.3405 27.0251 48.076C27.0251 43.8115 23.568 40.3545 19.3036 40.3545C15.0391 40.3545 11.582 43.8115 11.582 48.076C11.582 52.3405 15.0391 55.7975 19.3036 55.7975Z" fill="#FF9B00"/>
<path d="M41.6953 0.47998H80.3029V19.7838C80.3029 30.4395 71.6548 39.0876 60.9991 39.0876C50.3434 39.0876 41.6953 30.4395 41.6953 19.7838V0.47998Z" fill="#0000FF"/>
<path d="M53.2773 0.202637H68.7204V19.5065C68.7204 23.7687 65.2612 27.228 60.9989 27.228C56.7366 27.228 53.2773 23.7687 53.2773 19.5065V0.202637Z" fill="#0000D6"/>
<path d="M60.9989 27.2287C65.2634 27.2287 68.7204 23.7717 68.7204 19.5072C68.7204 15.2427 65.2634 11.7856 60.9989 11.7856C56.7344 11.7856 53.2773 15.2427 53.2773 19.5072C53.2773 23.7717 56.7344 27.2287 60.9989 27.2287Z" fill="#FFC700"/>
<path d="M60.9989 55.7975C65.2634 55.7975 68.7204 52.3405 68.7204 48.076C68.7204 43.8115 65.2634 40.3545 60.9989 40.3545C56.7344 40.3545 53.2773 43.8115 53.2773 48.076C53.2773 52.3405 56.7344 55.7975 60.9989 55.7975Z" fill="#FFC700"/>
<path d="M83.3906 0.202637H121.998V19.5065C121.998 30.1622 113.35 38.8103 102.694 38.8103C92.0387 38.8103 83.3906 30.1622 83.3906 19.5065V0.202637Z" fill="#FF9B00"/>
<path d="M94.9727 0.202637H110.416V19.5065C110.416 23.7687 106.956 27.228 102.694 27.228C98.4319 27.228 94.9727 23.7687 94.9727 19.5065V0.202637Z" fill="#FF7B12"/>
<path d="M102.694 27.2287C106.959 27.2287 110.416 23.7717 110.416 19.5072C110.416 15.2427 106.959 11.7856 102.694 11.7856C98.4297 11.7856 94.9727 15.2427 94.9727 19.5072C94.9727 23.7717 98.4297 27.2287 102.694 27.2287Z" fill="#FFC700"/>
<path d="M102.694 55.7975C106.959 55.7975 110.416 52.3405 110.416 48.076C110.416 43.8115 106.959 40.3545 102.694 40.3545C98.4297 40.3545 94.9727 43.8115 94.9727 48.076C94.9727 52.3405 98.4297 55.7975 102.694 55.7975Z" fill="#FFC700"/>
</svg>
